<?xml version="1.0" encoding="UTF-8" standalone="no"?>
<!-- Created with Inkscape (http://www.inkscape.org/) -->

<svg
   xmlns:dc="http://purl.org/dc/elements/1.1/"
   xmlns:cc="http://creativecommons.org/ns#"
   xmlns:rdf="http://www.w3.org/1999/02/22-rdf-syntax-ns#"
   xmlns:svg="http://www.w3.org/2000/svg"
   xmlns="http://www.w3.org/2000/svg"
   xmlns:sodipodi="http://sodipodi.sourceforge.net/DTD/sodipodi-0.dtd"
   xmlns:inkscape="http://www.inkscape.org/namespaces/inkscape"
   width="48"
   height="48"
   viewBox="0 0 12.7 12.7"
   version="1.1"
   id="svg8"
   inkscape:version="0.92.1 r15371"
   sodipodi:docname="pc-hiberbate.svg">
  <defs
     id="defs2" />
  <sodipodi:namedview
     id="base"
     pagecolor="#ffffff"
     bordercolor="#666666"
     borderopacity="1.0"
     inkscape:pageopacity="0.0"
     inkscape:pageshadow="2"
     inkscape:zoom="3.959798"
     inkscape:cx="27.076468"
     inkscape:cy="-11.483157"
     inkscape:document-units="mm"
     inkscape:current-layer="layer1"
     showgrid="false"
     units="px"
     inkscape:window-width="960"
     inkscape:window-height="1019"
     inkscape:window-x="0"
     inkscape:window-y="27"
     inkscape:window-maximized="0" />
  <metadata
     id="metadata5">
    <rdf:RDF>
      <cc:Work
         rdf:about="">
        <dc:format>image/svg+xml</dc:format>
        <dc:type
           rdf:resource="http://purl.org/dc/dcmitype/StillImage" />
        <dc:title></dc:title>
      </cc:Work>
    </rdf:RDF>
  </metadata>
  <g
     inkscape:label="Capa 1"
     inkscape:groupmode="layer"
     id="layer1"
     transform="translate(0,-284.29998)">
    <path
       style="fill:#aa0000;fill-opacity:1;stroke:none;stroke-width:1.0214237;stroke-miterlimit:4;stroke-dasharray:none"
       id="path5804"
       sodipodi:type="arc"
       sodipodi:cx="6.3499999"
       sodipodi:cy="290.64999"
       sodipodi:rx="6.0854168"
       sodipodi:ry="6.0854168"
       sodipodi:start="0"
       sodipodi:end="5.995014"
       sodipodi:open="true"
       d="m 12.435417,290.64999 a 6.0854168,6.0854168 0 0 1 -5.6473856,6.06964 6.0854168,6.0854168 0 0 1 -6.46038882,-5.19585 6.0854168,6.0854168 0 0 1 4.71734092,-6.81763 6.0854168,6.0854168 0 0 1 7.1395025,4.21437" />
    <path
       style="opacity:1;fill:#ffffff;fill-opacity:1;stroke:none;stroke-width:0.79374999;stroke-miterlimit:4;stroke-dasharray:none;stroke-opacity:1"
       d="m 6.350006,286.36441 c 0.2776263,0 0.5011304,0.23602 0.5011304,0.52918 v 1.69193 c 0,0.29315 -0.2235041,0.52916 -0.5011304,0.52916 -0.2776262,0 -0.5011303,-0.23602 -0.5011303,-0.52916 v -1.69193 c 0,-0.29316 0.2235041,-0.52918 0.5011303,-0.52918 z"
       id="rect4811"
       inkscape:connector-curvature="0"
       sodipodi:nodetypes="sssssss" />
    <path
       sodipodi:nodetypes="sssssss"
       inkscape:connector-curvature="0"
       id="path4836"
       d="m 6.350006,292.18529 c 0.2776263,0 0.5011304,0.23601 0.5011304,0.52917 v 1.69193 c 0,0.29315 -0.2235041,0.52916 -0.5011304,0.52916 -0.2776262,0 -0.5011303,-0.23601 -0.5011303,-0.52916 v -1.69193 c 0,-0.29316 0.2235041,-0.52917 0.5011303,-0.52917 z"
       style="opacity:1;fill:#ffffff;fill-opacity:1;stroke:none;stroke-width:0.79374999;stroke-miterlimit:4;stroke-dasharray:none;stroke-opacity:1" />
    <path
       sodipodi:nodetypes="sssssss"
       inkscape:connector-curvature="0"
       id="path4842"
       d="m 3.3196504,287.61963 c 0.1963114,-0.19631 0.521237,-0.18746 0.7285324,0.0198 l 1.1963752,1.19637 c 0.2072883,0.20729 0.2161313,0.53222 0.01982,0.72852 -0.1963114,0.19631 -0.5212369,0.18748 -0.7285253,-0.0198 l -1.1963751,-1.19637 c -0.2072955,-0.2073 -0.2161385,-0.53222 -0.019827,-0.72855 z"
       style="opacity:1;fill:#ffffff;fill-opacity:1;stroke:none;stroke-width:0.79374999;stroke-miterlimit:4;stroke-dasharray:none;stroke-opacity:1" />
    <path
       style="opacity:1;fill:#ffffff;fill-opacity:1;stroke:none;stroke-width:0.79374999;stroke-miterlimit:4;stroke-dasharray:none;stroke-opacity:1"
       d="m 7.435627,291.73561 c 0.1963115,-0.19631 0.521237,-0.18748 0.7285324,0.0198 l 1.1963752,1.19637 c 0.2072884,0.20729 0.2161314,0.53222 0.01982,0.72853 -0.1963113,0.19631 -0.5212369,0.18747 -0.7285252,-0.0198 l -1.1963752,-1.19637 c -0.2072954,-0.20729 -0.2161384,-0.53222 -0.019827,-0.72853 z"
       id="path4844"
       inkscape:connector-curvature="0"
       sodipodi:nodetypes="sssssss" />
    <path
       style="opacity:1;fill:#ffffff;fill-opacity:1;stroke:none;stroke-width:0.79374999;stroke-miterlimit:4;stroke-dasharray:none;stroke-opacity:1"
       d="m 2.0644351,290.64999 c 0,-0.27763 0.23601,-0.50113 0.52917,-0.50113 h 1.69193 c 0.29315,0 0.52916,0.2235 0.52916,0.50113 0,0.27762 -0.23601,0.50112 -0.52916,0.50112 h -1.69193 c -0.29316,0 -0.52917,-0.2235 -0.52917,-0.50112 z"
       id="path4848"
       inkscape:connector-curvature="0"
       sodipodi:nodetypes="sssssss" />
    <path
       sodipodi:nodetypes="sssssss"
       inkscape:connector-curvature="0"
       id="path4850"
       d="m 7.8853051,290.64999 c 0,-0.27763 0.23601,-0.50113 0.52917,-0.50113 h 1.6919299 c 0.29315,0 0.52916,0.2235 0.52916,0.50113 0,0.27762 -0.23601,0.50112 -0.52916,0.50112 H 8.4144751 c -0.29316,0 -0.52917,-0.2235 -0.52917,-0.50112 z"
       style="opacity:1;fill:#ffffff;fill-opacity:1;stroke:none;stroke-width:0.79374999;stroke-miterlimit:4;stroke-dasharray:none;stroke-opacity:1" />
    <path
       sodipodi:nodetypes="sssssss"
       inkscape:connector-curvature="0"
       id="path4854"
       d="m 3.3196468,293.68034 c -0.1963114,-0.19631 -0.1874684,-0.52124 0.019827,-0.72853 l 1.1963752,-1.19637 c 0.2072883,-0.20729 0.5322139,-0.21613 0.7285253,-0.0198 0.1963114,0.19631 0.1874684,0.52123 -0.01982,0.72852 l -1.1963752,1.19638 c -0.2072954,0.20729 -0.5322209,0.21614 -0.7285323,0.0198 z"
       style="opacity:1;fill:#ffffff;fill-opacity:1;stroke:none;stroke-width:0.79374999;stroke-miterlimit:4;stroke-dasharray:none;stroke-opacity:1" />
    <path
       style="opacity:1;fill:#ffffff;fill-opacity:1;stroke:none;stroke-width:0.79374999;stroke-miterlimit:4;stroke-dasharray:none;stroke-opacity:1"
       d="m 7.4356235,289.56436 c -0.1963115,-0.1963 -0.1874685,-0.52123 0.019827,-0.72852 l 1.1963752,-1.19638 c 0.2072884,-0.20729 0.5322139,-0.21613 0.7285254,-0.0198 0.1963113,0.19631 0.1874683,0.52124 -0.01982,0.72853 l -1.1963752,1.19636 c -0.2072954,0.2073 -0.532221,0.21614 -0.7285323,0.0198 z"
       id="path4856"
       inkscape:connector-curvature="0"
       sodipodi:nodetypes="sssssss" />
  </g>
</svg>
