<?xml version="1.0" encoding="UTF-8" standalone="no"?>
<!-- Created with Inkscape (http://www.inkscape.org/) -->

<svg
   xmlns:dc="http://purl.org/dc/elements/1.1/"
   xmlns:cc="http://creativecommons.org/ns#"
   xmlns:rdf="http://www.w3.org/1999/02/22-rdf-syntax-ns#"
   xmlns:svg="http://www.w3.org/2000/svg"
   xmlns="http://www.w3.org/2000/svg"
   xmlns:sodipodi="http://sodipodi.sourceforge.net/DTD/sodipodi-0.dtd"
   xmlns:inkscape="http://www.inkscape.org/namespaces/inkscape"
   width="48"
   height="48"
   viewBox="0 0 12.7 12.7"
   version="1.1"
   id="svg8"
   inkscape:version="0.92.1 r15371"
   sodipodi:docname="pc-logout.svg">
  <defs
     id="defs2" />
  <sodipodi:namedview
     id="base"
     pagecolor="#ffffff"
     bordercolor="#666666"
     borderopacity="1.0"
     inkscape:pageopacity="0.0"
     inkscape:pageshadow="2"
     inkscape:zoom="7.919596"
     inkscape:cx="45.025299"
     inkscape:cy="45.811883"
     inkscape:document-units="mm"
     inkscape:current-layer="layer1"
     showgrid="false"
     units="px"
     inkscape:window-width="1920"
     inkscape:window-height="1019"
     inkscape:window-x="0"
     inkscape:window-y="27"
     inkscape:window-maximized="1" />
  <metadata
     id="metadata5">
    <rdf:RDF>
      <cc:Work
         rdf:about="">
        <dc:format>image/svg+xml</dc:format>
        <dc:type
           rdf:resource="http://purl.org/dc/dcmitype/StillImage" />
        <dc:title></dc:title>
      </cc:Work>
    </rdf:RDF>
  </metadata>
  <g
     inkscape:label="Capa 1"
     inkscape:groupmode="layer"
     id="layer1"
     transform="translate(0,-284.29998)">
    <path
       style="fill:#aa0000;fill-opacity:1;stroke:none;stroke-width:1.0214237;stroke-miterlimit:4;stroke-dasharray:none"
       id="path5804"
       sodipodi:type="arc"
       sodipodi:cx="6.3499999"
       sodipodi:cy="290.64999"
       sodipodi:rx="6.0854168"
       sodipodi:ry="6.0854168"
       sodipodi:start="0"
       sodipodi:end="5.995014"
       sodipodi:open="true"
       d="m 12.435417,290.64999 a 6.0854168,6.0854168 0 0 1 -5.6473856,6.06964 6.0854168,6.0854168 0 0 1 -6.46038882,-5.19585 6.0854168,6.0854168 0 0 1 4.71734092,-6.81763 6.0854168,6.0854168 0 0 1 7.1395025,4.21437" />
    <path
       inkscape:connector-curvature="0"
       id="path4644"
       style="font-style:normal;font-variant:normal;font-weight:normal;font-stretch:normal;font-size:medium;line-height:1.25;font-family:FontAwesome;-inkscape-font-specification:FontAwesome;letter-spacing:0px;word-spacing:0px;fill:#ffffff;fill-opacity:1;stroke:none;stroke-width:0.09071428"
       d="m 5.5724491,293.58738 q 0,0.0216 0.0054,0.10799 0.0054,0.0864 0,0.14579 0,0.054 -0.016199,0.12419 -0.010799,0.0702 -0.053997,0.108 -0.037798,0.0324 -0.1079932,0.0324 H 3.6717688 q -0.6425595,0 -1.1015306,-0.45357 -0.4535714,-0.45897 -0.4535714,-1.10153 v -3.80136 q 0,-0.64256 0.4535714,-1.09613 0.4589711,-0.45897 1.1015306,-0.45897 H 5.39966 q 0.070196,0 0.1187925,0.054 0.053997,0.0486 0.053997,0.11879 0,0.0216 0.0054,0.10799 0.0054,0.0864 0,0.14579 0,0.054 -0.016199,0.12419 -0.010799,0.0702 -0.053997,0.108 -0.037798,0.0324 -0.1079932,0.0324 H 3.6717688 q -0.3563775,0 -0.6101615,0.25378 -0.2537841,0.25378 -0.2537841,0.61016 v 3.80136 q 0,0.35638 0.2537841,0.61016 0.253784,0.25379 0.6101615,0.25379 h 1.555102 q 0.0054,0 0.059396,0 0.053997,0 0.070196,0 0.016199,0 0.059396,0.005 0.048597,0.005 0.064796,0.0162 0.016199,0.0108 0.043197,0.0324 0.026998,0.0162 0.037798,0.0486 0.010799,0.027 0.010799,0.0702 z m 4.9082909,-3.1804 q 0.102593,0.10259 0.102593,0.24298 0,0.14039 -0.102593,0.24299 l -2.9374151,2.93741 q -0.1025935,0.10259 -0.2429847,0.10259 -0.1403911,0 -0.2429847,-0.10259 -0.1025935,-0.10259 -0.1025935,-0.24298 v -1.55511 H 4.5357144 q -0.1403912,0 -0.2429847,-0.10259 -0.1025935,-0.10259 -0.1025935,-0.24298 v -2.07347 q 0,-0.14039 0.1025935,-0.24299 0.1025935,-0.10259 0.2429847,-0.10259 H 6.954762 v -1.5551 q 0,-0.14039 0.1025935,-0.24299 0.1025936,-0.10259 0.2429847,-0.10259 0.1403912,0 0.2429847,0.10259 z" />
  </g>
</svg>
