<?xml version="1.0" encoding="UTF-8" standalone="no"?>
<!-- Created with Inkscape (http://www.inkscape.org/) -->

<svg
   xmlns:dc="http://purl.org/dc/elements/1.1/"
   xmlns:cc="http://creativecommons.org/ns#"
   xmlns:rdf="http://www.w3.org/1999/02/22-rdf-syntax-ns#"
   xmlns:svg="http://www.w3.org/2000/svg"
   xmlns="http://www.w3.org/2000/svg"
   xmlns:sodipodi="http://sodipodi.sourceforge.net/DTD/sodipodi-0.dtd"
   xmlns:inkscape="http://www.inkscape.org/namespaces/inkscape"
   width="48"
   height="48"
   viewBox="0 0 12.7 12.7"
   version="1.1"
   id="svg8"
   inkscape:version="0.92.1 r15371"
   sodipodi:docname="pc-restart.svg">
  <defs
     id="defs2" />
  <sodipodi:namedview
     id="base"
     pagecolor="#ffffff"
     bordercolor="#666666"
     borderopacity="1.0"
     inkscape:pageopacity="0.0"
     inkscape:pageshadow="2"
     inkscape:zoom="1.979899"
     inkscape:cx="33.047802"
     inkscape:cy="21.58947"
     inkscape:document-units="mm"
     inkscape:current-layer="layer1"
     showgrid="false"
     units="px"
     inkscape:window-width="960"
     inkscape:window-height="1019"
     inkscape:window-x="0"
     inkscape:window-y="27"
     inkscape:window-maximized="0" />
  <metadata
     id="metadata5">
    <rdf:RDF>
      <cc:Work
         rdf:about="">
        <dc:format>image/svg+xml</dc:format>
        <dc:type
           rdf:resource="http://purl.org/dc/dcmitype/StillImage" />
        <dc:title></dc:title>
      </cc:Work>
    </rdf:RDF>
  </metadata>
  <g
     inkscape:label="Capa 1"
     inkscape:groupmode="layer"
     id="layer1"
     transform="translate(0,-284.29998)">
    <path
       style="fill:#aa0000;fill-opacity:1;stroke:none;stroke-width:1.0214237;stroke-miterlimit:4;stroke-dasharray:none"
       id="path5804"
       sodipodi:type="arc"
       sodipodi:cx="6.3499999"
       sodipodi:cy="290.64999"
       sodipodi:rx="6.0854168"
       sodipodi:ry="6.0854168"
       sodipodi:start="0"
       sodipodi:end="5.995014"
       sodipodi:open="true"
       d="m 12.435417,290.64999 a 6.0854168,6.0854168 0 0 1 -5.6473856,6.06964 6.0854168,6.0854168 0 0 1 -6.46038882,-5.19585 6.0854168,6.0854168 0 0 1 4.71734092,-6.81763 6.0854168,6.0854168 0 0 1 7.1395025,4.21437" />
    <g
       aria-label=""
       style="font-style:normal;font-variant:normal;font-weight:normal;font-stretch:normal;font-size:9.87777805px;line-height:1.25;font-family:FontAwesome;-inkscape-font-specification:FontAwesome;letter-spacing:0px;word-spacing:0px;fill:#ffffff;fill-opacity:1;stroke:none;stroke-width:0.09260417"
       id="text4779">
      <path
         inkscape:connector-curvature="0"
         d="m 10.44553,291.53193 q 0,0.0276 -0.0055,0.0386 -0.352777,1.47725 -1.4772565,2.39778 -1.1244792,0.91502 -2.6348091,0.91502 -0.8047743,0 -1.5599393,-0.30317 -0.7496528,-0.30317 -1.3394531,-0.86541 l -0.7110678,0.71107 q -0.1047309,0.10473 -0.2480469,0.10473 -0.1433159,0 -0.2480468,-0.10473 -0.1047309,-0.10473 -0.1047309,-0.24805 v -2.46944 q 0,-0.14332 0.1047309,-0.24805 0.1047309,-0.10473 0.2480468,-0.10473 h 2.4694446 q 0.1433159,0 0.2480468,0.10473 0.1047309,0.10473 0.1047309,0.24805 0,0.14332 -0.1047309,0.24805 l -0.7551649,0.75516 q 0.3913628,0.3638 0.8874566,0.56224 0.4960938,0.19844 1.0307726,0.19844 0.7386285,0 1.3780382,-0.35829 0.6394098,-0.35829 1.0252605,-0.98668 0.060634,-0.0937 0.2921441,-0.64492 0.044097,-0.12678 0.1653646,-0.12678 h 1.0583336 q 0.07166,0 0.121267,0.0551 0.05512,0.0496 0.05512,0.12127 z m 0.137803,-4.40972 v 2.46944 q 0,0.14332 -0.10473,0.24805 -0.104731,0.10473 -0.248047,0.10473 H 7.7611112 q -0.143316,0 -0.2480469,-0.10473 -0.1047309,-0.10473 -0.1047309,-0.24805 0,-0.14331 0.1047309,-0.24804 l 0.7606771,-0.76068 Q 7.4579427,287.82776 6.35,287.82776 q -0.7386285,0 -1.3780382,0.35829 -0.6394098,0.35829 -1.0252605,0.98668 -0.060634,0.0937 -0.2921441,0.64492 -0.044097,0.12678 -0.1653646,0.12678 H 2.3922742 q -0.071658,0 -0.1267795,-0.0496 -0.049609,-0.0551 -0.049609,-0.12678 v -0.0386 Q 2.5741752,288.2522 3.7041666,287.33718 4.834158,286.41665 6.35,286.41665 q 0.8047743,0 1.5654514,0.30868 0.7606771,0.30317 1.3504775,0.8599 l 0.7165799,-0.71107 q 0.1047312,-0.10473 0.2480472,-0.10473 0.143316,0 0.248047,0.10473 0.10473,0.10473 0.10473,0.24805 z"
         style="fill:#ffffff;stroke-width:0.09260417"
         id="path4781" />
    </g>
  </g>
</svg>
